<?xml version="1.0" encoding="iso-8859-1"?>
<!-- Generator: Adobe Illustrator 16.0.0, SVG Export Plug-In . SVG Version: 6.00 Build 0)  -->
<!DOCTYPE svg PUBLIC "-//W3C//DTD SVG 1.1//EN" "http://www.w3.org/Graphics/SVG/1.1/DTD/svg11.dtd">
<svg version="1.1" id="Capa_1" xmlns="http://www.w3.org/2000/svg" xmlns:xlink="http://www.w3.org/1999/xlink" x="0px" y="0px"
	 width="942.986px" height="942.986px" viewBox="0 0 942.986 942.986" style="enable-background:new 0 0 942.986 942.986;"
	 xml:space="preserve">
<g>
	<path d="M804.89,138.097c-43.297-43.295-93.719-77.29-149.865-101.037C596.885,12.468,535.137,0,471.493,0
		S346.101,12.468,287.962,37.06c-56.147,23.747-106.569,57.742-149.865,101.037c-43.296,43.297-77.29,93.718-101.038,149.865
		C12.468,346.1,0,407.849,0,471.492c0,63.645,12.467,125.395,37.058,183.533C60.806,711.172,94.8,761.594,138.096,804.889
		c43.296,43.297,93.718,77.291,149.865,101.039c58.139,24.59,119.888,37.059,183.531,37.059s125.393-12.469,183.531-37.059
		c56.146-23.748,106.568-57.742,149.864-101.039c43.297-43.295,77.29-93.719,101.039-149.863
		c24.591-58.139,37.06-119.887,37.06-183.531c0-63.644-12.468-125.394-37.06-183.531
		C882.179,231.816,848.185,181.394,804.89,138.097z M300.499,66.702c54.15-22.903,111.68-34.517,170.994-34.517
		c59.312,0,116.844,11.613,170.994,34.517c27.625,11.685,53.747,26.06,78.208,42.941L471.493,290.699L222.291,109.643
		C246.752,92.76,272.873,78.386,300.499,66.702z M356.118,581.416H126.11l186.081-135.194L356.118,581.416z M258.035,175.395
		l186.081,135.194l-115.004,83.556L258.035,175.395z M339.568,426.331l131.925-95.849l131.924,95.848l-50.391,155.086H389.959
		L339.568,426.331z M630.794,446.221l186.08,135.193H586.867L630.794,446.221z M613.874,394.145L498.87,310.589l186.081-135.194
		L613.874,394.145z M32.183,471.494c0-59.313,11.613-116.844,34.516-170.994c22.126-52.311,53.803-99.294,94.155-139.645
		c14.396-14.396,29.652-27.668,45.678-39.815l95.2,292.997L50.273,596.732C38.256,556.32,32.183,514.373,32.183,471.494z
		 M300.499,876.285c-52.311-22.125-99.294-53.803-139.645-94.152c-40.351-40.352-72.029-87.334-94.155-139.645
		c-4.029-9.527-7.702-19.16-11.03-28.889h310.906l96.539,297.117C406.762,909.674,352.095,898.109,300.499,876.285z M400.416,613.6
		h142.153l-71.076,218.752L400.416,613.6z M876.285,642.488c-22.126,52.311-53.803,99.293-94.155,139.645
		c-40.35,40.35-87.333,72.027-139.644,94.152c-51.597,21.824-106.263,33.389-162.616,34.432l96.539-297.115h310.906
		C883.987,623.328,880.314,632.961,876.285,642.488z M892.711,596.732l-251.46-182.696l95.2-292.997
		c16.026,12.148,31.282,25.42,45.678,39.815c40.352,40.351,72.029,87.334,94.155,139.645
		c22.904,54.15,34.516,111.681,34.516,170.994C910.801,514.373,904.729,556.32,892.711,596.732z"/>
</g>
<g>
</g>
<g>
</g>
<g>
</g>
<g>
</g>
<g>
</g>
<g>
</g>
<g>
</g>
<g>
</g>
<g>
</g>
<g>
</g>
<g>
</g>
<g>
</g>
<g>
</g>
<g>
</g>
<g>
</g>
</svg>
